<svg xmlns="http://www.w3.org/2000/svg" height="20.363" width="23.958" fill="#4c70df">
    <defs>
        <clipPath id="a">
            <path d="M0 15.272h17.969V0H0z"/>
        </clipPath>
    </defs>
    <g clip-path="url(#a)" transform="matrix(1.33333 0 0 -1.33333 0 20.363)">
        <path d="M13.656 10.673h-2.965v4.6H7.277v-4.6H4.313l4.672-4.384zm3.72-5.771l-2.862 1.926h-1.763l3.054-2.344H2.162l3.055 2.344H3.452L.593 4.902c-.426-.253-.68-.84-.566-1.3L.531.84C.645.379 1.151 0 1.656 0h14.657c.504 0 1.01.379 1.125.84l.504 2.762c.114.46-.141 1.047-.566 1.3"/>
    </g>
</svg>