<svg xmlns="http://www.w3.org/2000/svg" width="19.9" height="19.87" viewBox="0 0 19.9 19.87">
  <metadata><?xpacket begin="﻿" id="W5M0MpCehiHzreSzNTczkc9d"?>
<x:xmpmeta xmlns:x="adobe:ns:meta/" x:xmptk="Adobe XMP Core 5.6-c138 79.159824, 2016/09/14-01:09:01        ">
   <rdf:RDF xmlns:rdf="http://www.w3.org/1999/02/22-rdf-syntax-ns#">
      <rdf:Description rdf:about=""/>
   </rdf:RDF>
</x:xmpmeta>
                                                                                                    
                                                                                                    
                                                                                                    
                                                                                                    
                                                                                                    
                                                                                                    
                                                                                                    
                                                                                                    
                                                                                                    
                                                                                                    
                                                                                                    
                                                                                                    
                                                                                                    
                                                                                                    
                                                                                                    
                                                                                                    
                                                                                                    
                                                                                                    
                                                                                                    
                                                                                                    
                           
<?xpacket end="w"?></metadata>
<defs>
    <style>
      .cls-1 {
        fill: #fe7327;
        fill-rule: evenodd;
      }
    </style>
  </defs>
  <path id="Фигура_11" data-name="Фигура 11" class="cls-1" d="M8800.89,2206.39a1.41,1.41,0,1,0-1.41-1.41A1.408,1.408,0,0,0,8800.89,2206.39Zm0-8.01a9.94,9.94,0,1,0,9.94,9.93A9.931,9.931,0,0,0,8800.89,2198.38Zm0,3.73a2.87,2.87,0,1,1-2.86,2.87A2.876,2.876,0,0,1,8800.89,2202.11Zm2.55,7.39a4.693,4.693,0,0,1-1.99.59l0.46,0.46,1.68,1.69a0.652,0.652,0,0,1,0,.93l-0.07.08a0.67,0.67,0,0,1-.93,0l-1.69-1.69-1.69,1.69a0.7,0.7,0,0,1-.46.19h0a0.7,0.7,0,0,1-.47-0.19l-0.08-.08a0.67,0.67,0,0,1,0-.93l1.69-1.69,0.46-.45a4.991,4.991,0,0,1-2.01-.6c-0.71-.46-1.03-0.74-0.75-1.3a0.72,0.72,0,0,1,1.2-.13,3.815,3.815,0,0,0,4.2,0,0.73,0.73,0,0,1,1.21.13C8804.48,2208.76,8804.16,2209.04,8803.44,2209.5Z" transform="translate(-8790.94 -2198.38)"/>
</svg>
