<svg xmlns="http://www.w3.org/2000/svg" width="19.87" height="19.87" viewBox="0 0 19.87 19.87">
  <metadata><?xpacket begin="﻿" id="W5M0MpCehiHzreSzNTczkc9d"?>
<x:xmpmeta xmlns:x="adobe:ns:meta/" x:xmptk="Adobe XMP Core 5.6-c138 79.159824, 2016/09/14-01:09:01        ">
   <rdf:RDF xmlns:rdf="http://www.w3.org/1999/02/22-rdf-syntax-ns#">
      <rdf:Description rdf:about=""/>
   </rdf:RDF>
</x:xmpmeta>
                                                                                                    
                                                                                                    
                                                                                                    
                                                                                                    
                                                                                                    
                                                                                                    
                                                                                                    
                                                                                                    
                                                                                                    
                                                                                                    
                                                                                                    
                                                                                                    
                                                                                                    
                                                                                                    
                                                                                                    
                                                                                                    
                                                                                                    
                                                                                                    
                                                                                                    
                                                                                                    
                           
<?xpacket end="w"?></metadata>
<defs>
    <style>
      .cls-1 {
        fill: #18bdef;
        fill-rule: evenodd;
      }
    </style>
  </defs>
  <path id="Фигура_12" data-name="Фигура 12" class="cls-1" d="M8834.32,2198.38a9.94,9.94,0,1,0,9.94,9.93A9.94,9.94,0,0,0,8834.32,2198.38Zm4.04,8.14v0.25a5.566,5.566,0,0,1-8.57,4.69,3.708,3.708,0,0,0,.47.03,3.89,3.89,0,0,0,2.43-.84,1.949,1.949,0,0,1-1.83-1.36,2.206,2.206,0,0,0,.37.04,2.247,2.247,0,0,0,.52-0.07,1.954,1.954,0,0,1-1.57-1.92v-0.03a1.875,1.875,0,0,0,.88.25,1.967,1.967,0,0,1-.87-1.63,1.894,1.894,0,0,1,.27-0.98,5.554,5.554,0,0,0,4.03,2.04,2.138,2.138,0,0,1-.05-0.45,1.966,1.966,0,0,1,3.39-1.34,3.88,3.88,0,0,0,1.24-.47,1.93,1.93,0,0,1-.86,1.08,3.647,3.647,0,0,0,1.13-.31A4.136,4.136,0,0,1,8838.36,2206.52Z" transform="translate(-8824.38 -2198.38)"/>
</svg>
