<svg xmlns="http://www.w3.org/2000/svg" width="19.87" height="19.87" viewBox="0 0 19.87 19.87">
  <metadata><?xpacket begin="﻿" id="W5M0MpCehiHzreSzNTczkc9d"?>
<x:xmpmeta xmlns:x="adobe:ns:meta/" x:xmptk="Adobe XMP Core 5.6-c138 79.159824, 2016/09/14-01:09:01        ">
   <rdf:RDF xmlns:rdf="http://www.w3.org/1999/02/22-rdf-syntax-ns#">
      <rdf:Description rdf:about=""/>
   </rdf:RDF>
</x:xmpmeta>
                                                                                                    
                                                                                                    
                                                                                                    
                                                                                                    
                                                                                                    
                                                                                                    
                                                                                                    
                                                                                                    
                                                                                                    
                                                                                                    
                                                                                                    
                                                                                                    
                                                                                                    
                                                                                                    
                                                                                                    
                                                                                                    
                                                                                                    
                                                                                                    
                                                                                                    
                                                                                                    
                           
<?xpacket end="w"?></metadata>
<defs>
    <style>
      .cls-1 {
        fill: #4f749e;
        fill-rule: evenodd;
      }
    </style>
  </defs>
  <path id="Фигура_9" data-name="Фигура 9" class="cls-1" d="M8732.32,2198.38a9.94,9.94,0,1,0,9.94,9.93A9.933,9.933,0,0,0,8732.32,2198.38Zm5.21,13.95-1.64.03a1.164,1.164,0,0,1-.82-0.25c-0.62-.43-1.2-1.53-1.65-1.38a1.343,1.343,0,0,0-.45,1.13,0.521,0.521,0,0,1-.1.33,0.609,0.609,0,0,1-.34.14h-0.73a4.224,4.224,0,0,1-3.06-1.39,20.157,20.157,0,0,1-2.94-4.86,0.394,0.394,0,0,1,0-.31,0.657,0.657,0,0,1,.37-0.12l1.76-.01a0.668,0.668,0,0,1,.28.11,0.566,0.566,0,0,1,.16.21,11.058,11.058,0,0,0,.66,1.37c0.73,1.27,1.08,1.55,1.33,1.41,0.36-.19.25-1.79,0.25-1.79a1.778,1.778,0,0,0-.18-0.84,0.878,0.878,0,0,0-.55-0.28c-0.1-.01.06-0.24,0.28-0.34a3.78,3.78,0,0,1,1.53-.16,3.426,3.426,0,0,1,.87.08c0.61,0.15.4,0.72,0.4,2.08a1.573,1.573,0,0,0,.24,1.25c0.13,0.08.46,0.01,1.29-1.39a10.847,10.847,0,0,0,.68-1.45,0.562,0.562,0,0,1,.17-0.2,0.42,0.42,0,0,1,.24-0.04l1.85-.01a0.722,0.722,0,0,1,.65.18c0.09,0.27-.21.88-0.97,1.89-1.24,1.66-1.38,1.51-.35,2.47a5.783,5.783,0,0,1,1.23,1.41C8738.4,2212.28,8737.53,2212.33,8737.53,2212.33Z" transform="translate(-8722.38 -2198.38)"/>
</svg>
