<svg xmlns="http://www.w3.org/2000/svg"
        xmlns:xlink="http://www.w3.org/1999/xlink"
        width="140px" height="66px">
    <path fill-rule="evenodd"  fill="rgb(76, 112, 223)"
          d="M138.023,2.391 C137.637,2.838 137.227,3.289 136.797,3.746 L136.797,5.558 L135.875,5.558 L135.875,3.760 C135.438,3.298 135.025,2.843 134.639,2.394 C134.252,1.946 133.888,1.506 133.546,1.074 L134.629,1.074 C134.871,1.428 135.140,1.787 135.438,2.152 C135.735,2.516 136.043,2.867 136.359,3.203 C136.670,2.867 136.974,2.516 137.273,2.152 C137.571,1.787 137.843,1.428 138.090,1.074 L139.116,1.074 C138.774,1.506 138.410,1.945 138.023,2.391 ZM130.989,5.558 L130.066,5.558 L130.066,1.618 L127.994,1.618 L127.994,1.074 L133.060,1.074 L133.060,1.618 L130.989,1.618 L130.989,5.558 ZM126.103,1.074 L127.024,1.074 L127.024,5.558 L126.103,5.558 L126.103,1.074 ZM121.168,1.074 L122.090,1.074 L122.090,5.014 L125.133,5.014 L125.133,5.558 L121.168,5.558 L121.168,1.074 ZM118.963,4.985 C118.868,4.798 118.770,4.607 118.668,4.413 L115.683,4.413 L115.084,5.558 L114.124,5.558 C114.378,5.084 114.615,4.645 114.837,4.242 C115.058,3.838 115.276,3.455 115.488,3.093 C115.700,2.731 115.911,2.385 116.121,2.055 C116.330,1.724 116.548,1.398 116.777,1.074 L117.622,1.074 C117.851,1.398 118.070,1.724 118.278,2.055 C118.488,2.385 118.698,2.731 118.910,3.093 C119.122,3.455 119.339,3.838 119.562,4.242 C119.783,4.645 120.022,5.084 120.275,5.558 L119.267,5.558 C119.160,5.364 119.058,5.173 118.963,4.985 ZM117.798,2.805 C117.599,2.454 117.391,2.116 117.176,1.792 C116.954,2.116 116.743,2.454 116.543,2.805 C116.344,3.157 116.145,3.520 115.950,3.896 L118.402,3.896 C118.200,3.520 117.998,3.157 117.798,2.805 ZM109.276,1.074 L113.298,1.074 L113.298,1.612 L110.198,1.612 L110.198,2.944 L112.954,2.944 L112.954,3.468 L110.198,3.468 L110.198,5.021 L113.535,5.021 L113.535,5.558 L109.276,5.558 L109.276,1.074 ZM107.384,4.487 C107.549,4.657 107.712,4.836 107.874,5.021 C108.035,5.206 108.173,5.385 108.287,5.558 L107.280,5.558 C107.152,5.394 107.015,5.228 106.866,5.060 C106.717,4.892 106.567,4.731 106.414,4.578 C106.263,4.425 106.112,4.281 105.963,4.148 C105.814,4.014 105.679,3.897 105.559,3.799 C105.477,3.803 105.393,3.805 105.307,3.805 C105.221,3.805 105.134,3.805 105.045,3.805 L104.219,3.805 L104.219,5.558 L103.296,5.558 L103.296,1.139 C103.556,1.096 103.845,1.067 104.166,1.052 C104.486,1.037 104.780,1.029 105.045,1.029 C105.970,1.029 106.676,1.148 107.160,1.385 C107.645,1.622 107.888,1.976 107.888,2.446 C107.888,2.744 107.773,2.998 107.541,3.209 C107.310,3.421 106.969,3.578 106.519,3.682 C106.620,3.768 106.749,3.881 106.904,4.021 C107.060,4.162 107.219,4.317 107.384,4.487 ZM106.776,2.877 C106.871,2.766 106.918,2.621 106.918,2.439 C106.918,2.271 106.871,2.131 106.776,2.019 C106.681,1.907 106.553,1.819 106.391,1.753 C106.229,1.689 106.039,1.644 105.820,1.618 C105.602,1.592 105.368,1.579 105.122,1.579 C104.729,1.579 104.428,1.585 104.219,1.598 L104.219,3.287 L104.875,3.287 C105.191,3.287 105.477,3.277 105.730,3.255 C105.984,3.233 106.198,3.192 106.371,3.132 C106.547,3.072 106.681,2.986 106.776,2.877 ZM95.672,1.074 L99.694,1.074 L99.694,1.612 L96.594,1.612 L96.594,2.944 L99.351,2.944 L99.351,3.468 L96.594,3.468 L96.594,5.021 L99.931,5.021 L99.931,5.558 L95.672,5.558 L95.672,1.074 ZM93.115,3.488 L89.892,3.488 L89.892,5.558 L88.970,5.558 L88.970,1.074 L89.892,1.074 L89.892,2.944 L93.115,2.944 L93.115,1.074 L94.038,1.074 L94.038,5.558 L93.115,5.558 L93.115,3.488 ZM85.928,5.558 L85.007,5.558 L85.007,1.618 L82.934,1.618 L82.934,1.074 L88.001,1.074 L88.001,1.618 L85.928,1.618 L85.928,5.558 ZM79.065,4.257 C79.357,4.473 79.630,4.693 79.888,4.918 C80.144,5.142 80.358,5.355 80.529,5.558 L79.445,5.558 C79.255,5.355 79.036,5.151 78.790,4.947 C78.543,4.742 78.281,4.545 78.005,4.358 C77.729,4.170 77.450,3.997 77.168,3.837 C76.886,3.678 76.612,3.542 76.346,3.430 L76.346,5.558 L75.424,5.558 L75.424,1.074 L76.346,1.074 L76.346,3.054 C76.568,2.912 76.812,2.752 77.078,2.572 C77.344,2.393 77.607,2.213 77.867,2.032 C78.127,1.851 78.372,1.677 78.604,1.511 C78.835,1.345 79.030,1.199 79.189,1.074 L80.301,1.074 C80.104,1.221 79.883,1.384 79.635,1.563 C79.388,1.742 79.130,1.925 78.861,2.113 C78.591,2.301 78.324,2.485 78.058,2.666 C77.791,2.847 77.540,3.016 77.306,3.170 C77.578,3.300 77.867,3.460 78.172,3.649 C78.475,3.839 78.773,4.042 79.065,4.257 ZM70.795,4.610 C70.978,4.768 71.208,4.890 71.484,4.976 C71.760,5.062 72.081,5.105 72.449,5.105 C72.873,5.105 73.225,5.075 73.503,5.014 C73.782,4.954 73.991,4.900 74.131,4.853 L74.369,5.370 C74.324,5.392 74.245,5.419 74.131,5.451 C74.017,5.484 73.874,5.515 73.703,5.545 C73.532,5.575 73.333,5.601 73.104,5.623 C72.877,5.644 72.629,5.655 72.363,5.655 C71.901,5.655 71.479,5.603 71.098,5.500 C70.718,5.396 70.392,5.246 70.120,5.047 C69.847,4.849 69.635,4.604 69.487,4.313 C69.338,4.021 69.264,3.688 69.264,3.313 C69.264,2.938 69.348,2.605 69.515,2.313 C69.684,2.022 69.910,1.778 70.196,1.579 C70.480,1.381 70.814,1.230 71.193,1.126 C71.574,1.023 71.980,0.971 72.411,0.971 C72.683,0.971 72.929,0.984 73.147,1.010 C73.366,1.035 73.556,1.066 73.717,1.100 C73.879,1.135 74.011,1.169 74.112,1.204 C74.214,1.238 74.283,1.264 74.321,1.281 L74.055,1.799 C73.998,1.773 73.916,1.745 73.808,1.715 C73.699,1.685 73.578,1.655 73.441,1.624 C73.306,1.594 73.156,1.569 72.995,1.550 C72.833,1.530 72.670,1.521 72.506,1.521 C72.157,1.521 71.843,1.562 71.564,1.644 C71.285,1.726 71.048,1.844 70.852,1.999 C70.655,2.155 70.504,2.344 70.400,2.566 C70.295,2.788 70.243,3.036 70.243,3.313 C70.243,3.580 70.289,3.824 70.381,4.044 C70.473,4.264 70.610,4.453 70.795,4.610 ZM67.505,4.985 C67.410,4.798 67.312,4.607 67.210,4.413 L64.226,4.413 L63.626,5.558 L62.666,5.558 C62.920,5.084 63.158,4.645 63.379,4.242 C63.601,3.838 63.818,3.455 64.030,3.093 C64.242,2.731 64.454,2.385 64.663,2.055 C64.871,1.724 65.091,1.398 65.319,1.074 L66.165,1.074 C66.392,1.398 66.612,1.724 66.820,2.055 C67.030,2.385 67.240,2.731 67.453,3.093 C67.665,3.455 67.882,3.838 68.104,4.242 C68.326,4.645 68.563,5.084 68.817,5.558 L67.809,5.558 C67.701,5.364 67.600,5.173 67.505,4.985 ZM66.340,2.805 C66.141,2.454 65.933,2.116 65.718,1.792 C65.495,2.116 65.285,2.454 65.086,2.805 C64.886,3.157 64.688,3.520 64.492,3.896 L66.944,3.896 C66.741,3.520 66.540,3.157 66.340,2.805 ZM61.250,4.487 C61.414,4.657 61.578,4.836 61.740,5.021 C61.902,5.206 62.038,5.385 62.153,5.558 L61.145,5.558 C61.018,5.394 60.881,5.228 60.732,5.060 C60.583,4.892 60.432,4.731 60.280,4.578 C60.128,4.425 59.978,4.281 59.829,4.148 C59.679,4.014 59.545,3.897 59.425,3.799 C59.342,3.803 59.258,3.805 59.173,3.805 C59.087,3.805 59.000,3.805 58.911,3.805 L58.084,3.805 L58.084,5.558 L57.162,5.558 L57.162,1.139 C57.421,1.096 57.712,1.067 58.031,1.052 C58.352,1.037 58.644,1.029 58.911,1.029 C59.837,1.029 60.542,1.148 61.027,1.385 C61.511,1.622 61.755,1.976 61.755,2.446 C61.755,2.744 61.638,2.998 61.407,3.209 C61.175,3.421 60.835,3.578 60.385,3.682 C60.486,3.768 60.615,3.881 60.769,4.021 C60.925,4.162 61.085,4.317 61.250,4.487 ZM60.642,2.877 C60.737,2.766 60.784,2.621 60.784,2.439 C60.784,2.271 60.737,2.131 60.642,2.019 C60.546,1.907 60.417,1.819 60.257,1.753 C60.095,1.689 59.905,1.644 59.686,1.618 C59.467,1.592 59.234,1.579 58.988,1.579 C58.594,1.579 58.293,1.585 58.084,1.598 L58.084,3.287 L58.740,3.287 C59.057,3.287 59.342,3.277 59.596,3.255 C59.849,3.233 60.063,3.192 60.238,3.132 C60.412,3.072 60.546,2.986 60.642,2.877 ZM54.120,5.558 L53.198,5.558 L53.198,1.618 L51.126,1.618 L51.126,1.074 L56.193,1.074 L56.193,1.618 L54.120,1.618 L54.120,5.558 ZM37.378,17.017 C42.277,20.724 45.712,25.737 47.967,29.961 C49.834,29.214 51.732,28.298 53.658,27.147 L51.481,29.683 C51.481,29.683 50.598,30.631 48.923,31.843 C50.702,35.530 51.481,38.242 51.481,38.242 L46.453,41.289 C45.778,38.858 44.992,36.639 44.123,34.602 C39.221,36.800 31.991,38.322 22.802,35.532 C21.925,37.314 21.071,39.225 20.249,41.289 C20.249,41.289 19.901,38.649 20.462,34.743 C16.675,33.335 12.588,31.205 8.214,28.098 L10.219,23.025 C10.219,23.025 14.549,27.006 21.571,29.808 C22.815,25.770 25.094,21.175 29.234,16.901 C21.637,12.415 14.764,12.495 14.764,12.495 C21.791,10.903 27.615,11.802 32.401,14.014 C36.091,11.029 40.859,8.321 47.063,6.249 L50.568,10.590 C50.311,11.459 44.501,11.746 37.378,17.017 ZM33.726,20.096 C30.897,22.791 27.980,26.344 25.209,31.053 C30.207,32.505 36.183,33.140 42.727,31.626 C40.124,26.561 36.969,22.834 33.726,20.096 ZM51.650,41.289 L49.862,45.555 C49.862,45.555 27.842,82.062 0.883,55.635 L8.382,44.701 C8.382,44.701 28.546,67.797 51.650,41.289 ZM53.161,11.765 L136.393,11.765 L136.393,11.769 C138.960,11.862 138.987,13.762 138.987,13.762 C138.987,13.762 139.027,36.044 138.987,38.066 C138.952,39.852 136.877,40.168 136.393,40.217 L136.393,40.226 L53.161,40.226 C58.710,23.104 53.161,11.765 53.161,11.765 ZM120.734,34.497 L123.973,34.497 L123.973,30.715 C124.329,30.852 124.784,30.976 125.336,31.087 C125.889,31.199 126.496,31.255 127.155,31.255 C128.136,31.255 129.015,31.131 129.791,30.882 C130.567,30.634 131.213,30.286 131.731,29.839 C132.248,29.391 132.645,28.858 132.921,28.236 C133.198,27.616 133.336,26.933 133.336,26.187 C133.336,25.405 133.171,24.700 132.842,24.072 C132.511,23.446 132.038,22.911 131.423,22.470 C130.808,22.030 130.064,21.691 129.189,21.455 C128.315,21.219 127.324,21.101 126.219,21.101 C125.149,21.101 124.132,21.157 123.169,21.268 C122.206,21.381 121.394,21.498 120.734,21.622 L120.734,34.497 ZM105.872,29.578 C106.148,29.976 106.532,30.298 107.023,30.547 C107.513,30.795 108.106,30.976 108.802,31.087 C109.497,31.199 110.264,31.255 111.102,31.255 C112.369,31.255 113.506,31.202 114.514,31.096 C115.521,30.991 116.275,30.901 116.775,30.826 L116.775,24.920 C116.775,24.349 116.681,23.824 116.494,23.346 C116.307,22.868 115.994,22.461 115.557,22.125 C115.120,21.790 114.537,21.529 113.805,21.343 C113.074,21.157 112.173,21.063 111.102,21.063 C110.210,21.063 109.372,21.113 108.588,21.213 C107.803,21.313 107.205,21.411 106.795,21.511 L107.196,23.337 C107.589,23.238 108.097,23.150 108.721,23.076 C109.345,23.001 110.033,22.964 110.782,22.964 C111.334,22.964 111.794,23.014 112.160,23.113 C112.525,23.213 112.819,23.352 113.043,23.532 C113.265,23.713 113.422,23.921 113.511,24.156 C113.600,24.393 113.644,24.641 113.644,24.902 L113.644,25.274 C113.198,25.200 112.779,25.147 112.387,25.116 C111.994,25.085 111.620,25.069 111.263,25.069 C110.496,25.069 109.761,25.123 109.056,25.228 C108.352,25.334 107.731,25.507 107.196,25.750 C106.662,25.992 106.238,26.305 105.926,26.690 C105.614,27.075 105.458,27.548 105.458,28.107 C105.458,28.690 105.596,29.180 105.872,29.578 ZM89.458,27.454 C89.869,28.286 90.457,28.991 91.224,29.569 C91.991,30.146 92.927,30.584 94.033,30.882 C95.140,31.180 96.388,31.329 97.779,31.329 C98.492,31.329 99.161,31.301 99.786,31.245 C100.410,31.190 100.972,31.115 101.471,31.022 C101.971,30.929 102.404,30.832 102.769,30.733 C103.134,30.634 103.424,30.535 103.638,30.435 L102.729,28.516 C102.317,28.665 101.739,28.824 100.990,28.991 C100.241,29.159 99.268,29.242 98.073,29.242 C97.074,29.242 96.218,29.128 95.505,28.898 C94.791,28.668 94.203,28.346 93.740,27.929 C93.275,27.513 92.932,27.019 92.709,26.448 C92.486,25.877 92.375,25.250 92.375,24.566 C92.375,23.796 92.517,23.120 92.803,22.536 C93.088,21.952 93.485,21.467 93.993,21.082 C94.502,20.697 95.104,20.408 95.799,20.216 C96.495,20.024 97.244,19.927 98.047,19.927 C98.974,19.927 99.835,20.011 100.628,20.179 C101.422,20.346 102.034,20.523 102.461,20.710 L103.451,18.791 C103.326,18.741 103.112,18.660 102.810,18.549 C102.506,18.437 102.123,18.331 101.659,18.232 C101.195,18.133 100.651,18.042 100.026,17.961 C99.402,17.881 98.707,17.841 97.940,17.841 C96.673,17.841 95.488,17.990 94.382,18.288 C93.275,18.586 92.312,19.023 91.492,19.601 C90.672,20.179 90.024,20.884 89.552,21.716 C89.079,22.548 88.843,23.504 88.843,24.585 C88.843,25.665 89.047,26.622 89.458,27.454 ZM73.620,26.765 C73.620,27.423 73.717,28.029 73.914,28.581 C74.110,29.134 74.435,29.609 74.890,30.007 C75.345,30.404 75.952,30.715 76.710,30.938 C77.467,31.162 78.409,31.273 79.532,31.273 C80.727,31.273 81.824,31.214 82.823,31.096 C83.822,30.979 84.633,30.864 85.258,30.752 L85.258,21.306 L82.021,21.306 L82.021,29.187 C81.807,29.224 81.481,29.255 81.044,29.280 C80.607,29.305 80.192,29.318 79.799,29.318 C78.712,29.318 77.949,29.094 77.512,28.646 C77.075,28.200 76.857,27.454 76.857,26.411 L76.857,21.306 L73.620,21.306 L73.620,26.765 ZM62.997,31.050 L66.236,31.050 L66.236,23.243 C66.396,23.206 66.677,23.163 67.078,23.113 C67.479,23.064 67.858,23.039 68.216,23.039 C68.840,23.039 69.387,23.073 69.860,23.141 C70.333,23.210 70.703,23.275 70.970,23.337 L71.532,21.436 C71.372,21.399 71.158,21.359 70.891,21.315 C70.623,21.272 70.346,21.235 70.061,21.203 C69.776,21.173 69.489,21.148 69.205,21.128 C68.919,21.110 68.669,21.101 68.456,21.101 C67.314,21.101 66.275,21.173 65.339,21.315 C64.403,21.458 63.622,21.610 62.997,21.771 L62.997,31.050 ZM109.672,26.951 C109.966,26.852 110.296,26.783 110.661,26.747 C111.027,26.709 111.388,26.690 111.745,26.690 C112.155,26.690 112.530,26.709 112.868,26.747 C113.207,26.783 113.466,26.821 113.644,26.858 L113.644,29.355 C113.127,29.429 112.369,29.466 111.370,29.466 C110.550,29.466 109.899,29.364 109.417,29.159 C108.936,28.954 108.695,28.585 108.695,28.051 C108.695,27.777 108.784,27.551 108.962,27.370 C109.141,27.191 109.377,27.051 109.672,26.951 ZM125.898,23.039 C127.344,23.039 128.391,23.318 129.042,23.877 C129.693,24.436 130.019,25.218 130.019,26.224 C130.019,27.169 129.747,27.920 129.203,28.479 C128.658,29.038 127.798,29.318 126.621,29.318 C126.086,29.318 125.581,29.258 125.109,29.140 C124.636,29.022 124.257,28.895 123.973,28.758 L123.973,23.188 C124.293,23.125 124.618,23.086 124.948,23.066 C125.279,23.048 125.595,23.039 125.898,23.039 Z"/>
</svg>